<svg width="97" height="96" viewBox="0 0 97 96" fill="none" xmlns="http://www.w3.org/2000/svg">
<circle cx="48.3698" cy="48" r="47.8571" fill="url(#paint0_linear_196_703)"/>
<circle cx="48.6021" cy="48" r="39.2857" fill="url(#paint1_linear_196_703)"/>
<path d="M32.6821 29.5166C33.7181 29.5166 34.6234 29.7266 35.3981 30.1466C36.1821 30.5666 36.7841 31.1499 37.2041 31.8966C37.6241 32.6433 37.8341 33.4926 37.8341 34.4446C37.8341 35.3873 37.6241 36.2366 37.2041 36.9926C36.7841 37.7486 36.1821 38.3459 35.3981 38.7846C34.6234 39.2139 33.7181 39.4286 32.6821 39.4286H28.5521V29.5166H32.6821ZM32.4021 36.6566C33.1021 36.6566 33.6574 36.4653 34.0681 36.0826C34.4787 35.6999 34.6841 35.1539 34.6841 34.4446C34.6841 33.7353 34.4787 33.1893 34.0681 32.8066C33.6574 32.4239 33.1021 32.2326 32.4021 32.2326H31.6601V36.6566H32.4021ZM43.9403 39.4286L42.0783 35.8726H42.0643V39.4286H38.9563V29.5166H43.5763C44.379 29.5166 45.065 29.6613 45.6343 29.9506C46.2037 30.2306 46.6283 30.6179 46.9083 31.1126C47.1977 31.5979 47.3423 32.1486 47.3423 32.7646C47.3423 33.4273 47.1557 34.0153 46.7823 34.5286C46.4183 35.0419 45.891 35.4106 45.2003 35.6346L47.3563 39.4286H43.9403ZM42.0643 33.8006H43.2963C43.595 33.8006 43.819 33.7353 43.9683 33.6046C44.1177 33.4646 44.1923 33.2499 44.1923 32.9606C44.1923 32.6993 44.113 32.4939 43.9543 32.3446C43.805 32.1953 43.5857 32.1206 43.2963 32.1206H42.0643V33.8006ZM53.1653 39.5266C52.2319 39.5266 51.3733 39.3073 50.5893 38.8686C49.8146 38.4299 49.1986 37.8233 48.7413 37.0486C48.2839 36.2739 48.0553 35.4013 48.0553 34.4306C48.0553 33.4599 48.2839 32.5873 48.7413 31.8126C49.1986 31.0379 49.8146 30.4359 50.5893 30.0066C51.3733 29.5679 52.2319 29.3486 53.1653 29.3486C54.0986 29.3486 54.9526 29.5679 55.7273 30.0066C56.5019 30.4359 57.1133 31.0379 57.5613 31.8126C58.0186 32.5873 58.2473 33.4599 58.2473 34.4306C58.2473 35.4013 58.0186 36.2739 57.5613 37.0486C57.1133 37.8233 56.4973 38.4299 55.7133 38.8686C54.9386 39.3073 54.0893 39.5266 53.1653 39.5266ZM53.1653 36.6286C53.7813 36.6286 54.2573 36.4326 54.5933 36.0406C54.9293 35.6393 55.0973 35.1026 55.0973 34.4306C55.0973 33.7493 54.9293 33.2126 54.5933 32.8206C54.2573 32.4193 53.7813 32.2186 53.1653 32.2186C52.5399 32.2186 52.0593 32.4193 51.7233 32.8206C51.3873 33.2126 51.2193 33.7493 51.2193 34.4306C51.2193 35.1026 51.3873 35.6393 51.7233 36.0406C52.0593 36.4326 52.5399 36.6286 53.1653 36.6286ZM67.4745 32.9186C67.4745 33.5439 67.3298 34.1133 67.0405 34.6266C66.7511 35.1306 66.3218 35.5319 65.7525 35.8306C65.1925 36.1293 64.5111 36.2786 63.7085 36.2786H62.4765V39.4286H59.3685V29.5166H63.7085C64.9218 29.5166 65.8505 29.8246 66.4945 30.4406C67.1478 31.0566 67.4745 31.8826 67.4745 32.9186ZM63.3585 33.8286C64.0025 33.8286 64.3245 33.5253 64.3245 32.9186C64.3245 32.3119 64.0025 32.0086 63.3585 32.0086H62.4765V33.8286H63.3585Z" fill="white"/>
<path d="M51.4012 62.0973L59.9734 53.3354C61.6449 51.629 61.6449 48.8471 59.9734 47.1407C59.1655 46.3127 58.0875 45.8571 56.9431 45.8571C55.7987 45.8571 54.7208 46.3127 53.9129 47.1407L48.371 52.8053L42.8291 47.1407C42.019 46.3127 40.9432 45.8571 39.7988 45.8571C38.6545 45.8571 37.5787 46.3127 36.7686 47.1407C35.9585 47.9687 35.5128 49.0684 35.5128 50.2381C35.5128 51.4078 35.9585 52.5074 36.7686 53.3354L45.3407 62.0973C46.1487 62.9253 47.2266 63.3809 48.371 63.3809C49.5154 63.3809 50.5933 62.9253 51.4012 62.0973ZM46.8559 60.5486L38.2837 51.7867C37.4736 50.9565 37.4736 49.5196 38.2837 48.6894C39.1195 47.8351 40.4782 47.8351 41.314 48.6894L48.371 55.9026L55.428 48.6894C55.833 48.2754 56.3709 48.0476 56.9431 48.0476C57.5153 48.0476 58.0532 48.2754 58.4582 48.6894C58.8761 49.1165 59.0862 49.6773 59.0862 50.2381C59.0862 50.7988 58.8761 51.3596 58.4604 51.7867L49.8883 60.5486C49.4811 60.9626 48.9432 61.1905 48.371 61.1905C47.7988 61.1905 47.2609 60.9626 46.8559 60.5486Z" fill="white"/>
<path fill-rule="evenodd" clip-rule="evenodd" d="M56.9413 65.3333H39.7984C38.6149 65.3333 37.6556 66.2927 37.6556 67.4761C37.6556 68.6596 38.6149 69.619 39.7984 69.619H56.9413C58.1247 69.619 59.0841 68.6596 59.0841 67.4761C59.0841 66.2927 58.1247 65.3333 56.9413 65.3333ZM39.7984 63.1904C37.4315 63.1904 35.5127 65.1092 35.5127 67.4761C35.5127 69.8431 37.4315 71.7619 39.7984 71.7619H56.9413C59.3082 71.7619 61.227 69.8431 61.227 67.4761C61.227 65.1092 59.3082 63.1904 56.9413 63.1904H39.7984Z" fill="white"/>
<defs>
<linearGradient id="paint0_linear_196_703" x1="88.3698" y1="16.9286" x2="21.7061" y2="82.6995" gradientUnits="userSpaceOnUse">
<stop offset="0.0001" stop-color="#D3A341"/>
<stop offset="1" stop-color="#9A6700"/>
</linearGradient>
<linearGradient id="paint1_linear_196_703" x1="81.4379" y1="22.4936" x2="26.7139" y2="76.4847" gradientUnits="userSpaceOnUse">
<stop stop-color="#9A6700"/>
<stop offset="1" stop-color="#D3A341"/>
</linearGradient>
</defs>
</svg>
