<svg width="1234" height="771" viewBox="0 0 1234 771" fill="none" xmlns="http://www.w3.org/2000/svg">
<g clip-path="url(#clip0_815_1104)">
<path d="M961 386C961 575.986 806.986 730 617 730C427.014 730 273 575.986 273 386C273 196.014 427.014 42 617 42C951.5 114.5 828.5 109.5 828.5 279.5C951 342 968 314 961 386ZM461.828 386C461.828 471.699 531.301 541.172 617 541.172C702.699 541.172 772.172 471.699 772.172 386C772.172 300.301 702.699 230.828 617 230.828C531.301 230.828 461.828 300.301 461.828 386Z" fill="#D3A341"/>
<path d="M1089.46 247.822C1079.28 247.822 1069.9 241.113 1066.64 231.438C1063.38 221.757 1066.67 210.748 1074.8 204.533C1082.59 198.567 1093.42 197.985 1101.84 202.993C1110.45 208.12 1115.07 218.543 1113.07 228.387C1110.81 239.531 1100.84 247.822 1089.46 247.822Z" fill="#E6E6E6"/>
<path d="M616.805 543.878C529.701 543.878 458.835 472.835 458.835 385.514C458.835 298.192 529.701 227.15 616.805 227.15C658.917 227.15 698.527 243.565 728.334 273.37C758.28 303.311 774.772 343.137 774.772 385.514C774.772 427.889 758.28 467.715 728.334 497.657C698.527 527.464 658.917 543.878 616.805 543.878ZM616.805 275.437C556.27 275.437 507.022 324.818 507.022 385.514C507.022 446.212 556.27 495.591 616.805 495.591C646.068 495.591 673.589 484.184 694.298 463.478C715.119 442.658 726.584 414.975 726.584 385.514C726.584 356.054 715.119 328.369 694.298 307.55C673.589 286.842 646.068 275.437 616.805 275.437Z" fill="#E6E6E6"/>
<path d="M1229.54 372.09C1228.7 370.822 1208.43 340.575 1170.7 297.511C1161.92 287.491 1146.7 286.499 1136.7 295.297C1126.7 304.095 1125.71 319.351 1134.49 329.37C1155.89 353.791 1171.42 373.968 1180.41 386.186C1161.94 413.823 1113.47 481.119 1038.47 548.158C1000.43 582.163 952.112 618.959 894.653 649.957C962.628 578.25 999.933 484.759 999.933 385.496C999.933 349.17 994.867 313.197 984.875 278.58C982.277 269.572 974.706 262.884 965.458 261.436C956.21 259.982 946.961 264.031 941.738 271.813C939.591 275.016 937.12 278.02 934.402 280.738C923.28 291.859 908.496 297.984 892.783 297.984C860.27 297.984 833.821 271.458 833.821 238.855C833.821 206.297 860.197 179.8 892.648 179.725C892.795 179.728 892.957 179.728 893.061 179.728C902.401 179.728 910.902 174.317 914.869 165.843C918.839 157.368 917.563 147.361 911.596 140.159C904.406 131.482 896.765 123.044 888.863 115.048C922 131.598 954.818 151.202 987.242 173.842C998.163 181.464 1013.18 178.774 1020.78 167.835C1028.39 156.893 1025.71 141.844 1014.79 134.222C887.213 45.1625 753.309 0 616.8 0C527.306 0 439.246 19.7444 355.064 58.6851C288.106 89.6588 223.503 132.764 163.05 186.806C60.4271 278.544 5.69815 369.287 3.4189 373.103C-1.13963 380.738 -1.13963 390.261 3.4189 397.898C5.52711 401.425 56.1192 485.345 151.171 573.385C248.5 663.534 408.291 771 616.8 771C706.294 771 794.353 751.255 878.535 712.315C945.493 681.34 1010.09 638.238 1070.55 584.194C1173.17 492.453 1227.9 401.71 1230.18 397.894C1234.96 389.891 1234.71 379.844 1229.54 372.09ZM785.63 238.86C785.63 298.09 833.698 346.275 892.779 346.275C912.309 346.275 931.044 341.073 947.401 331.321C950.288 349.16 951.742 367.278 951.742 385.499C951.742 475.368 916.765 559.835 853.254 623.338C790.059 686.525 706.082 721.324 616.796 721.324C432.103 721.324 281.849 570.675 281.849 385.499C281.849 200.322 432.111 49.6724 616.8 49.6724C703.233 49.6724 784.685 82.283 847.132 141.685C810.818 158.902 785.63 195.988 785.63 238.86ZM52.7387 385.486C70.8595 358.282 119.515 290.43 195.128 222.836C233.273 188.735 281.757 151.833 339.425 120.782C273.927 189.733 233.666 282.991 233.666 385.499C233.666 488.047 273.956 581.334 339.5 650.292C276.871 616.553 224.578 575.621 183.878 537.927C114.886 474.019 69.9921 411.355 52.7387 385.486Z" fill="#E6E6E6"/>
</g>
<defs>
<clipPath id="clip0_815_1104">
<rect width="1233.6" height="771" fill="white"/>
</clipPath>
</defs>
</svg>
