<svg width="64" height="64" viewBox="0 0 64 64" fill="none" xmlns="http://www.w3.org/2000/svg">
<path d="M61.4842 19.5442C59.8728 15.7337 57.5663 12.3108 54.6287 9.37236C51.6891 6.43478 48.2655 4.12721 44.4568 2.51591C40.5117 0.846988 36.3202 0.000213623 31.9999 0.000213623C27.6806 0.000213623 23.4893 0.846863 19.5439 2.51591C15.7335 4.12721 12.3106 6.4349 9.37202 9.37236C6.43456 12.3108 4.127 15.7337 2.51557 19.5442C0.846775 23.4895 0 27.6809 0 32.0001C0 36.3203 0.84665 40.5118 2.5157 44.457C4.127 48.2657 6.43469 51.6894 9.37215 54.6269C12.3106 57.5665 15.7335 59.873 19.5441 61.4843C23.4894 63.1523 27.6807 64 32.0001 64C36.3203 64 40.5118 63.1523 44.4569 61.4843C48.2657 59.8728 51.6893 57.5664 54.6289 54.6269C57.5664 51.6894 59.8729 48.2656 61.4843 44.457C63.1524 40.5118 64 36.3203 64 32.0001C63.9999 27.6809 63.1522 23.4895 61.4842 19.5442Z" fill="#ED5564"/>
<path d="M0.0126953 32.8985C0.122074 36.9003 0.961848 40.7852 2.51564 44.4569C4.12694 48.2657 6.43463 51.6893 9.3721 54.6269C12.3106 57.5664 15.7334 59.8729 19.544 61.4842C23.4894 63.1522 27.6806 63.9999 32 63.9999C36.3203 63.9999 40.5118 63.1522 44.4569 61.4842C48.2656 59.8728 51.6892 57.5663 54.6288 54.6269C57.5664 51.6893 59.8728 48.2655 61.4843 44.4569C63.0391 40.7852 63.8788 36.9003 63.9882 32.8985H0.0126953Z" fill="#E6E9ED"/>
<path d="M63.8475 35.1524C63.949 34.1094 63.9999 33.0586 63.9999 32.0001C63.9999 30.8105 63.9354 29.6309 63.8085 28.4638C62.2186 28.709 59.9354 29.0284 57.0585 29.3456C51.5974 29.9481 42.8201 30.6669 31.9999 30.6669C21.1806 30.6669 12.4024 29.9481 6.94233 29.3456C4.06449 29.0282 1.78218 28.709 0.192381 28.4638C0.0645019 29.6309 0 30.8107 0 32.0001C0 33.0586 0.0507515 34.1095 0.152379 35.1524C5.34378 35.9337 16.7812 37.332 31.9999 37.332C47.2186 37.332 58.656 35.9337 63.8475 35.1524Z" fill="#434A54"/>
<path d="M38.6679 33.333C38.6679 37.0155 35.6814 39.9999 32 39.9999C28.3183 39.9999 25.333 37.0155 25.333 33.333C25.333 29.6512 28.3183 26.6669 32 26.6669C35.6814 26.667 38.6679 29.6514 38.6679 33.333Z" fill="#E6E9ED"/>
<path d="M32 21.3331C25.3828 21.3331 20 26.7169 20 33.3331C20 39.9493 25.3829 45.332 32 45.332C38.617 45.332 43.9998 39.9492 43.9998 33.3331C43.9998 26.7169 38.6172 21.3331 32 21.3331ZM32 38.668C29.0596 38.668 26.6669 36.2734 26.6669 33.3331C26.6669 30.3926 29.0595 28.0001 32 28.0001C34.9414 28.0001 37.3319 30.3926 37.3319 33.3331C37.3319 36.2733 34.9414 38.668 32 38.668Z" fill="#434A54"/>
<path opacity="0.2" d="M61.4843 19.5441C59.8728 15.7336 57.5664 12.3107 54.6288 9.37227C51.6892 6.43468 48.2656 4.12712 44.4569 2.51582C40.5118 0.846897 36.3203 0.00012207 32 0.00012207C31.5538 0.00012207 31.1094 0.00987235 30.667 0.0274979C34.5157 0.183752 38.25 1.01878 41.7891 2.51582C45.6014 4.12712 49.0234 6.43481 51.9607 9.37227C54.8983 12.3107 57.207 15.7336 58.8181 19.5441C60.488 23.4894 61.3318 27.6808 61.3318 32.0002C61.3318 36.3203 60.488 40.5118 58.8181 44.457C57.2069 48.2658 54.8983 51.6894 51.9607 54.627C49.0234 57.5666 45.6014 59.873 41.7891 61.4843C38.25 62.9805 34.5156 63.8164 30.667 63.9726C31.1094 63.9902 31.5536 64 32 64C36.3203 64 40.5118 63.1523 44.4569 61.4843C48.2656 59.8729 51.6892 57.5664 54.6288 54.627C57.5664 51.6894 59.8728 48.2657 61.4843 44.457C63.1523 40.5118 64 36.3203 64 32.0002C64 27.6808 63.1523 23.4894 61.4843 19.5441Z" fill="white"/>
<path opacity="0.1" d="M2.5157 44.457C4.127 48.2657 6.43469 51.6894 9.37215 54.6269C12.3106 57.5665 15.7335 59.873 19.5441 61.4843C23.4894 63.1523 27.6807 64 32.0001 64C32.4463 64 32.8907 63.9902 33.3331 63.9726C29.4844 63.8163 25.7491 62.9803 22.21 61.4843C18.3995 59.8728 14.9777 57.5664 12.0392 54.6269C9.10077 51.6894 6.79407 48.2656 5.18178 44.457C3.51273 40.5119 2.66708 36.3204 2.66708 32.0001C2.66708 27.6808 3.51273 23.4894 5.18165 19.544C6.79395 15.7335 9.10064 12.3106 12.0391 9.37324C14.9776 6.43478 18.3994 4.12708 22.2099 2.51579C25.749 1.01874 29.4842 0.183719 33.333 0.0274644C32.8906 0.00996391 32.4462 0.000213623 31.9999 0.000213623C27.6806 0.000213623 23.4893 0.846863 19.5439 2.51591C15.7335 4.12721 12.3106 6.4349 9.37202 9.37336C6.43456 12.3108 4.127 15.7337 2.51557 19.5442C0.846775 23.4895 0 27.6809 0 32.0001C0 36.3203 0.846775 40.5119 2.5157 44.457Z" fill="black"/>
</svg>
