<svg width="33" height="38" viewBox="0 0 33 38" fill="none" xmlns="http://www.w3.org/2000/svg">
<path d="M1.8335 18.3871L6.11127 10.4193H27.5002L29.9446 14.7096L31.1668 19.6129L15.8891 36.1612L1.8335 18.3871Z" fill="#D3A341"/>
<path d="M32.8844 18.5766C28.3473 9.3929 28.4866 9.67263 28.4576 9.62075C28.2574 9.26212 27.8841 9.05483 27.5004 9.05483C27.3411 9.05483 5.48661 9.05201 5.40073 9.05988C5.02944 9.09298 4.69871 9.31697 4.52491 9.65355C4.52205 9.65919 4.51875 9.66454 4.51596 9.67018L0.115853 18.5766C0.112333 18.5836 0.1094 18.5909 0.1061 18.598C0.10346 18.6035 0.100526 18.6089 0.0980331 18.6144C0.0961997 18.6184 0.0948796 18.6226 0.0931196 18.6266C0.0930463 18.6267 0.092973 18.6269 0.092973 18.627C-0.0732749 19.01 -0.0162946 19.4635 0.261714 19.7949C0.265161 19.7991 0.268314 19.8035 0.271908 19.8076L15.6722 37.6203C15.6741 37.6224 15.6761 37.6242 15.678 37.6263C16.1101 38.1185 16.8794 38.1306 17.3222 37.6263C17.324 37.6242 17.3261 37.6224 17.3279 37.6203L32.7282 19.8076C32.729 19.8067 32.7298 19.8057 32.7305 19.8047C33.0115 19.4777 33.0896 18.992 32.8844 18.5766ZM25.7205 11.2814L22.9124 16.9654L18.7001 11.2814H25.7205ZM20.9002 17.9612H12.1L16.5001 12.0237L20.9002 17.9612ZM14.3001 11.2814L10.0879 16.9654L7.27977 11.2814H14.3001ZM5.49988 12.6576L8.12017 17.9612H2.87966L5.49988 12.6576ZM3.52397 20.1878H9.13761L13.3479 31.5506L3.52397 20.1878ZM16.5001 33.7166L11.4873 20.1878H21.5129L16.5001 33.7166ZM19.6524 31.5507L23.8626 20.1879H29.4762L19.6524 31.5507ZM24.8802 17.9612L27.5004 12.6576L30.1207 17.9612H24.8802Z" fill="white"/>
<path d="M16.5001 0C15.8926 0 15.4001 0.498453 15.4001 1.11328V4.4532C15.4001 5.06802 15.8926 5.56648 16.5001 5.56648C17.1076 5.56648 17.6001 5.06802 17.6001 4.4532V1.11328C17.6001 0.498453 17.1076 0 16.5001 0Z" fill="white"/>
<path d="M12.8779 4.77931L10.6778 2.55275C10.2483 2.11805 9.5518 2.11805 9.12221 2.55275C8.69262 2.98753 8.69262 3.69238 9.12221 4.12715L11.3222 6.35371C11.7518 6.78849 12.4483 6.78849 12.8779 6.35371C13.3074 5.91894 13.3074 5.21409 12.8779 4.77931Z" fill="white"/>
<path d="M23.8781 2.55275C23.4486 2.11805 22.752 2.11805 22.3225 2.55275L20.1224 4.77931C19.6928 5.21409 19.6928 5.91894 20.1224 6.35371C20.552 6.78849 21.2486 6.78841 21.6781 6.35371L23.8781 4.12715C24.3077 3.69238 24.3077 2.98753 23.8781 2.55275Z" fill="white"/>
</svg>
