<svg width="38" height="38" viewBox="0 0 38 38" fill="none" xmlns="http://www.w3.org/2000/svg">
<circle cx="19" cy="16" r="7" fill="#D3A341"/>
<path d="M14.5 25C10.9 25.8 9 30.6667 8.5 33C9.5 34.5 14 36.5 20 36.5C24.8 36.5 28.3333 34.5 29.5 33.5L29 31C28.3333 30.1667 26.5 27.9 24.5 25.5C22 22.5 19 24 14.5 25Z" fill="#D3A341"/>
<path d="M32.435 5.56496C28.8465 1.97636 24.075 0 19 0C13.9247 0 9.15355 1.97636 5.56496 5.56496C1.97636 9.15355 0 13.9247 0 19C0 24.075 1.97636 28.8465 5.56496 32.435C9.15355 36.0236 13.9247 38 19 38C24.075 38 28.8465 36.0236 32.435 32.435C36.0236 28.8465 38 24.075 38 19C38 13.9247 36.0236 9.15355 32.435 5.56496ZM9.52522 32.8334C10.3199 28.2579 14.2848 24.883 19 24.883C23.7155 24.883 27.6801 28.2579 28.4748 32.8334C25.7771 34.6868 22.5132 35.7734 19 35.7734C15.4868 35.7734 12.2229 34.6868 9.52522 32.8334ZM12.9587 16.6151C12.9587 13.2837 15.6689 10.5739 19 10.5739C22.3311 10.5739 25.0413 13.284 25.0413 16.6151C25.0413 19.9463 22.3311 22.6564 19 22.6564C15.6689 22.6564 12.9587 19.9463 12.9587 16.6151ZM30.4033 31.289C29.804 29.159 28.6139 27.2264 26.9458 25.7168C25.9223 24.7905 24.7575 24.0596 23.505 23.5444C25.7687 22.0679 27.2681 19.5134 27.2681 16.6151C27.2681 12.0562 23.5589 8.34729 19 8.34729C14.4411 8.34729 10.7321 12.0562 10.7321 16.6151C10.7321 19.5134 12.2316 22.0679 14.495 23.5444C13.2428 24.0596 12.0777 24.7902 11.0542 25.7165C9.38635 27.2261 8.19595 29.1587 7.59669 31.2887C4.29599 28.2234 2.22656 23.8492 2.22656 19C2.22656 9.75107 9.75107 2.22656 19 2.22656C28.2489 2.22656 35.7734 9.75107 35.7734 19C35.7734 23.8494 33.704 28.2237 30.4033 31.289Z" fill="white"/>
</svg>
