<svg width="40" height="40" viewBox="0 0 40 40" fill="none" xmlns="http://www.w3.org/2000/svg">
<path d="M20 40C31.0457 40 40 31.0457 40 20C40 8.9543 31.0457 0 20 0C8.9543 0 0 8.9543 0 20C0 31.0457 8.9543 40 20 40Z" fill="#3A559F"/>
<path d="M26.3365 17.6318L25.9342 21.1159C25.9175 21.2749 25.8431 21.4222 25.7249 21.5299C25.6068 21.6375 25.4532 21.6981 25.2933 21.7H21.657L21.6388 32.0295C21.64 32.152 21.593 32.2699 21.508 32.358C21.4229 32.446 21.3066 32.497 21.1842 32.5H17.5002C17.4389 32.5 17.3783 32.4877 17.3219 32.4637C17.2655 32.4398 17.2146 32.4047 17.1721 32.3605C17.1297 32.3164 17.0966 32.2641 17.0748 32.2068C17.0531 32.1495 17.0432 32.0885 17.0456 32.0273V21.7H14.3183C14.2327 21.6991 14.148 21.6814 14.0692 21.6477C13.9904 21.6141 13.919 21.5653 13.8591 21.5041C13.7992 21.4429 13.7519 21.3705 13.7199 21.291C13.688 21.2116 13.672 21.1266 13.6729 21.0409L13.6592 17.5568C13.658 17.4709 13.6738 17.3855 13.7056 17.3056C13.7374 17.2258 13.7846 17.1529 13.8445 17.0913C13.9044 17.0297 13.9759 16.9805 14.0549 16.9465C14.1339 16.9125 14.2187 16.8944 14.3047 16.8932H17.0456V13.5295C17.0456 9.625 19.3638 7.5 22.7638 7.5H25.5502C25.6363 7.50089 25.7214 7.51878 25.8007 7.55264C25.8799 7.5865 25.9516 7.63567 26.0118 7.69733C26.072 7.75898 26.1194 7.83191 26.1513 7.91193C26.1833 7.99195 26.1991 8.07749 26.1979 8.16364V11.0955C26.1991 11.1816 26.1833 11.2671 26.1513 11.3472C26.1194 11.4272 26.072 11.5001 26.0118 11.5618C25.9516 11.6234 25.8799 11.6726 25.8007 11.7065C25.7214 11.7403 25.6363 11.7582 25.5502 11.7591H23.8411C21.9933 11.7591 21.6342 12.6682 21.6342 13.9818V16.8932H25.6956C25.788 16.8943 25.879 16.915 25.9628 16.9539C26.0466 16.9928 26.1212 17.0489 26.1818 17.1187C26.2423 17.1885 26.2874 17.2703 26.3141 17.3587C26.3407 17.4471 26.3484 17.5402 26.3365 17.6318Z" fill="white"/>
</svg>
