<svg width="40" height="40" viewBox="0 0 40 40" fill="none" xmlns="http://www.w3.org/2000/svg">
<path d="M38.4897 16.5228L22.1741 16.522C21.4536 16.522 20.8696 17.1059 20.8696 17.8263V23.0385C20.8696 23.7588 21.4536 24.3428 22.174 24.3428H31.362C30.3559 26.9538 28.4781 29.1405 26.0823 30.5299L30 37.3118C36.2846 33.6772 40 27.2999 40 20.161C40 19.1445 39.9251 18.4179 39.7753 17.5997C39.6614 16.9781 39.1217 16.5228 38.4897 16.5228Z" fill="#167EE6"/>
<path d="M20.0001 32.1737C15.5037 32.1737 11.5784 29.7169 9.4702 26.0815L2.68848 29.9904C6.13965 35.9719 12.6048 39.9997 20.0001 39.9997C23.628 39.9997 27.0512 39.0229 30.0001 37.3207V37.3114L26.0824 30.5294C24.2904 31.5687 22.2166 32.1737 20.0001 32.1737Z" fill="#12B347"/>
<path d="M30 37.3211V37.3118L26.0823 30.5298C24.2902 31.5691 22.2166 32.1741 20 32.1741V40.0002C23.6279 40.0002 27.0513 39.0234 30 37.3211Z" fill="#0F993E"/>
<path d="M7.8261 20C7.8261 17.7836 8.43094 15.7101 9.47008 13.9182L2.68836 10.0093C0.976719 12.9489 0 16.3628 0 20C0 23.6372 0.976719 27.0511 2.68836 29.9907L9.47008 26.0818C8.43094 24.2898 7.8261 22.2163 7.8261 20Z" fill="#FFD500"/>
<path d="M20.0001 7.82609C22.9322 7.82609 25.6255 8.86796 27.7292 10.601C28.2482 11.0285 29.0025 10.9977 29.4779 10.5223L33.1708 6.82929C33.7102 6.28992 33.6718 5.40703 33.0956 4.90719C29.571 1.84945 24.985 0 20.0001 0C12.6048 0 6.13965 4.02789 2.68848 10.0093L9.4702 13.9182C11.5784 10.2828 15.5037 7.82609 20.0001 7.82609Z" fill="#FF4B26"/>
<path d="M27.7291 10.601C28.2481 11.0285 29.0024 10.9977 29.4777 10.5223L33.1707 6.82929C33.71 6.28992 33.6716 5.40703 33.0955 4.90719C29.5709 1.84937 24.9849 0 20 0V7.82609C22.932 7.82609 25.6254 8.86796 27.7291 10.601Z" fill="#D93F21"/>
</svg>
