<svg width="34" height="38" viewBox="0 0 34 38" fill="none" xmlns="http://www.w3.org/2000/svg">
<path d="M32.9808 18.5766C28.4304 9.3929 28.5701 9.67263 28.5411 9.62075C28.3403 9.26212 27.9659 9.05483 27.5811 9.05483C27.4212 9.05483 5.5027 9.05201 5.41657 9.05988C5.04419 9.09298 4.71249 9.31697 4.53818 9.65355C4.53531 9.65919 4.532 9.66454 4.5292 9.67018L0.116193 18.5766C0.112663 18.5836 0.109721 18.5909 0.106411 18.598C0.103763 18.6035 0.100821 18.6089 0.0983206 18.6144C0.0964818 18.6184 0.0951578 18.6226 0.0933927 18.6266C0.0933191 18.6267 0.0932457 18.6269 0.0932457 18.627C-0.0734898 19.01 -0.0163424 19.4635 0.262482 19.7949C0.265938 19.7991 0.269101 19.8035 0.272705 19.8076L15.7182 37.6203C15.72 37.6224 15.7221 37.6242 15.7239 37.6263C16.1574 38.1185 16.9289 38.1306 17.373 37.6263C17.3748 37.6242 17.3769 37.6224 17.3787 37.6203L32.8242 19.8076C32.825 19.8067 32.8258 19.8057 32.8265 19.8047C33.1083 19.4777 33.1866 18.992 32.9808 18.5766ZM25.796 11.2814L22.9795 16.9654L18.755 11.2814H25.796ZM20.9615 17.9612H12.1355L16.5485 12.0237L20.9615 17.9612ZM14.342 11.2814L10.1175 16.9654L7.30111 11.2814H14.342ZM5.51601 12.6576L8.14399 17.9612H2.8881L5.51601 12.6576ZM3.53431 20.1878H9.1644L13.387 31.5506L3.53431 20.1878ZM16.5485 33.7166L11.521 20.1878H21.576L16.5485 33.7166ZM19.71 31.5507L23.9326 20.1879H29.5627L19.71 31.5507ZM24.9532 17.9612L27.5811 12.6576L30.209 17.9612H24.9532Z" fill="#696969"/>
<path d="M16.5485 0C15.9392 0 15.4453 0.498453 15.4453 1.11328V4.4532C15.4453 5.06802 15.9392 5.56648 16.5485 5.56648C17.1578 5.56648 17.6517 5.06802 17.6517 4.4532V1.11328C17.6517 0.498453 17.1578 0 16.5485 0Z" fill="#696969"/>
<path d="M12.9156 4.77931L10.7092 2.55275C10.2784 2.11805 9.57981 2.11805 9.14896 2.55275C8.71811 2.98753 8.71811 3.69238 9.14896 4.12715L11.3554 6.35371C11.7863 6.78849 12.4848 6.78849 12.9156 6.35371C13.3465 5.91894 13.3465 5.21409 12.9156 4.77931Z" fill="#696969"/>
<path d="M23.9481 2.55275C23.5173 2.11805 22.8188 2.11805 22.3879 2.55275L20.1814 4.77931C19.7506 5.21409 19.7506 5.91894 20.1814 6.35371C20.6123 6.78849 21.3109 6.78841 21.7416 6.35371L23.9481 4.12715C24.379 3.69238 24.379 2.98753 23.9481 2.55275Z" fill="#696969"/>
</svg>
