<svg width="65" height="30" viewBox="0 0 65 30" fill="none" xmlns="http://www.w3.org/2000/svg">
<path d="M37.6191 13.6065L34.3919 11.991C33.9271 11.7583 33.3616 11.9469 33.129 12.4125C32.8965 12.878 33.085 13.4441 33.55 13.6768L36.7772 15.2923C36.7944 15.301 36.8265 15.3169 36.8265 15.3721C36.8265 15.4273 36.7945 15.4432 36.7772 15.4519L28.7773 19.4566C28.7641 19.4632 28.7329 19.4788 28.6907 19.4527C28.6484 19.4265 28.6484 19.3916 28.6484 19.3768V11.3675C28.6484 11.3527 28.6484 11.3178 28.6907 11.2916C28.733 11.2655 28.764 11.2811 28.7773 11.2877L30.097 11.9483C30.562 12.1811 31.1274 11.9924 31.3598 11.5269C31.5924 11.0613 31.4039 10.4952 30.9389 10.2625L29.6193 9.60197C29.0036 9.29362 28.2865 9.32604 27.701 9.6883C27.1154 10.0506 26.7659 10.6783 26.7659 11.3675V19.3768C26.7659 20.0659 27.1154 20.6936 27.701 21.056C28.0197 21.2533 28.3773 21.3527 28.7364 21.3527C29.037 21.3527 29.3387 21.2829 29.6193 21.1425L37.6192 17.1378C38.2915 16.8013 38.7092 16.1248 38.7092 15.3721C38.709 14.6196 38.2914 13.943 37.6191 13.6065Z" fill="#696969"/>
<path d="M41.1835 4.11947H23.0745C20.3365 4.11947 18.1091 6.34969 18.1091 9.09094V21.1779C18.1091 23.9192 20.3367 26.1494 23.0745 26.1494H41.1835C43.9215 26.1494 46.149 23.9192 46.149 21.1779V9.09094C46.149 6.34957 43.9215 4.11947 41.1835 4.11947ZM44.2664 21.1779C44.2664 22.8799 42.8833 24.2646 41.1835 24.2646H23.0745C21.3746 24.2646 19.9917 22.8799 19.9917 21.1779V9.09094C19.9917 7.38897 21.3747 6.00427 23.0745 6.00427H41.1835C42.8835 6.00427 44.2664 7.38897 44.2664 9.09094V21.1779Z" fill="#696969"/>
<path d="M4.63449 0.368091C4.16924 0.135632 3.6041 0.324741 3.37192 0.790412C1.13443 5.27824 0 10.1042 0 15.1344C0 20.1646 1.13443 24.9906 3.37192 29.4783C3.5367 29.8089 3.86929 30 4.2148 30C4.35599 30 4.49957 29.9681 4.63449 29.9006C5.09961 29.6682 5.28849 29.1022 5.05631 28.6366C2.95035 24.4126 1.88256 19.8699 1.88256 15.1344C1.88256 10.399 2.95035 5.85625 5.05631 1.63216C5.28849 1.16649 5.09961 0.600549 4.63449 0.368091Z" fill="#696969"/>
<path d="M9.618 3.86754C9.14485 3.65204 8.58673 3.86138 8.3715 4.33534C6.82202 7.74695 6.03637 11.3802 6.03637 15.1344C6.03637 18.8885 6.82202 22.5218 8.3715 25.9334C8.52925 26.2807 8.87113 26.4859 9.22894 26.4859C9.35921 26.4859 9.49174 26.4586 9.618 26.4011C10.0913 26.1857 10.3005 25.6269 10.0853 25.1531C8.64773 21.9884 7.91893 18.6175 7.91893 15.1344C7.91893 11.6513 8.64786 8.28035 10.0853 5.11552C10.3004 4.64169 10.0912 4.08303 9.618 3.86754Z" fill="#696969"/>
<path d="M14.6368 7.3994C14.1515 7.21268 13.6069 7.45506 13.4205 7.94096C12.5261 10.2703 12.0726 12.6905 12.0726 15.1344C12.0726 17.5782 12.5261 19.9984 13.4204 22.3278C13.5642 22.7023 13.9209 22.9323 14.2992 22.9323C14.4115 22.9323 14.5257 22.912 14.6367 22.8693C15.1219 22.6826 15.3641 22.1374 15.1776 21.6515C14.3664 19.5388 13.9552 17.3461 13.9552 15.1344C13.9552 12.9226 14.3664 10.73 15.1776 8.61723C15.3641 8.13133 15.122 7.58612 14.6368 7.3994Z" fill="#696969"/>
<path d="M60.8861 0.790412C60.654 0.324741 60.0887 0.135632 59.6236 0.368091C59.1585 0.600549 58.9696 1.16649 59.2018 1.63216C61.3077 5.85612 62.3755 10.3989 62.3755 15.1344C62.3755 19.8697 61.3077 24.4125 59.2018 28.6366C58.9696 29.1022 59.1585 29.6682 59.6236 29.9006C59.7586 29.9681 59.9019 30 60.0433 30C60.3888 30 60.7214 29.8088 60.8861 29.4783C63.1236 24.9905 64.2581 20.1645 64.2581 15.1344C64.2581 10.1041 63.1236 5.27812 60.8861 0.790412Z" fill="#696969"/>
<path d="M54.6401 3.86753C54.1668 4.0829 53.9576 4.64169 54.1728 5.11552C55.6102 8.28048 56.3391 11.6513 56.3391 15.1344C56.3391 18.6175 55.6102 21.9884 54.1728 25.1532C53.9576 25.627 54.1668 26.1857 54.6401 26.4012C54.7664 26.4587 54.8989 26.486 55.0291 26.486C55.3868 26.486 55.7288 26.2807 55.8866 25.9335C57.436 22.5219 58.2217 18.8886 58.2217 15.1345C58.2217 11.3803 57.436 7.74708 55.8866 4.33547C55.6713 3.8615 55.1131 3.65204 54.6401 3.86753Z" fill="#696969"/>
<path d="M49.6213 7.3994C49.1361 7.58612 48.8939 8.13133 49.0804 8.61723C49.8915 10.73 50.3028 12.9226 50.3028 15.1344C50.3028 17.3461 49.8915 19.5388 49.0804 21.6515C48.8939 22.1373 49.136 22.6826 49.6213 22.8693C49.7324 22.912 49.8464 22.9323 49.9588 22.9323C50.337 22.9323 50.6937 22.7023 50.8375 22.3278C51.7319 19.9984 52.1853 17.5782 52.1853 15.1344C52.1853 12.6905 51.7319 10.2703 50.8375 7.94096C50.6512 7.45506 50.1064 7.21268 49.6213 7.3994Z" fill="#696969"/>
</svg>
