<svg width="36" height="36" viewBox="0 0 36 36" fill="none" xmlns="http://www.w3.org/2000/svg">
<path d="M18 0C14.4399 0 10.9598 1.05568 7.99974 3.03355C5.03966 5.01141 2.73255 7.82263 1.37018 11.1117C0.00779923 14.4008 -0.348661 18.02 0.345873 21.5116C1.04041 25.0033 2.75474 28.2106 5.27209 30.7279C7.78943 33.2453 10.9967 34.9596 14.4884 35.6541C17.98 36.3487 21.5992 35.9922 24.8883 34.6298C28.1774 33.2674 30.9886 30.9603 32.9665 28.0003C34.9443 25.0402 36 21.5601 36 18C35.9944 13.2278 34.0961 8.65273 30.7217 5.27829C27.3473 1.90386 22.7722 0.00562986 18 0ZM18 32.7273C15.0872 32.7273 12.2399 31.8635 9.81797 30.2453C7.39608 28.627 5.50845 26.3269 4.39378 23.6359C3.27911 20.9448 2.98746 17.9837 3.55571 15.1268C4.12397 12.27 5.52661 9.64589 7.58625 7.58624C9.6459 5.5266 12.27 4.12396 15.1269 3.55571C17.9837 2.98745 20.9448 3.2791 23.6359 4.39377C26.3269 5.50844 28.627 7.39608 30.2453 9.81796C31.8635 12.2398 32.7273 15.0872 32.7273 18C32.7229 21.9046 31.1699 25.648 28.409 28.409C25.648 31.1699 21.9046 32.7229 18 32.7273Z" fill="#8B8B8B"/>
<path d="M24.9415 11.0569C24.6346 10.7501 24.2185 10.5778 23.7845 10.5778C23.3506 10.5778 22.9345 10.7501 22.6276 11.0569L18 15.6862L13.3724 11.0569C13.2214 10.9006 13.0409 10.776 12.8412 10.6902C12.6416 10.6044 12.4268 10.5593 12.2096 10.5574C11.9923 10.5555 11.7768 10.5969 11.5757 10.6792C11.3746 10.7615 11.1919 10.883 11.0383 11.0366C10.8846 11.1903 10.7631 11.373 10.6808 11.5741C10.5986 11.7752 10.5572 11.9907 10.5591 12.2079C10.5609 12.4252 10.6061 12.6399 10.6918 12.8396C10.7776 13.0392 10.9023 13.2198 11.0586 13.3707L15.6862 18L11.0586 22.6293C10.9023 22.7802 10.7776 22.9608 10.6918 23.1604C10.6061 23.3601 10.5609 23.5748 10.5591 23.7921C10.5572 24.0093 10.5986 24.2248 10.6808 24.4259C10.7631 24.627 10.8846 24.8097 11.0383 24.9634C11.1919 25.117 11.3746 25.2385 11.5757 25.3208C11.7768 25.4031 11.9923 25.4445 12.2096 25.4426C12.4268 25.4407 12.6416 25.3956 12.8412 25.3098C13.0409 25.224 13.2214 25.0994 13.3724 24.9431L18 20.3138L22.6276 24.9431C22.7786 25.0994 22.9592 25.224 23.1588 25.3098C23.3584 25.3956 23.5732 25.4407 23.7904 25.4426C24.0077 25.4445 24.2232 25.4031 24.4243 25.3208C24.6254 25.2385 24.8081 25.117 24.9617 24.9634C25.1154 24.8097 25.2369 24.627 25.3192 24.4259C25.4014 24.2248 25.4428 24.0093 25.441 23.7921C25.4391 23.5748 25.3939 23.3601 25.3082 23.1604C25.2224 22.9608 25.0977 22.7802 24.9415 22.6293L20.3138 18L24.9415 13.3707C25.2482 13.0639 25.4206 12.6477 25.4206 12.2138C25.4206 11.7799 25.2482 11.3638 24.9415 11.0569Z" fill="#8B8B8B"/>
</svg>
